<svg version="1.1" xmlns="http://www.w3.org/2000/svg" viewBox="0 0 1161.9999999999993 534.1666666666664" width="1161.9999999999993" height="534.1666666666664">
  <!-- svg-source:excalidraw -->
  
  <defs>
    <style class="style-fonts">
      @font-face {
        font-family: "Virgil";
        src: url("https://excalidraw.com/Virgil.woff2");
      }
      @font-face {
        font-family: "Cascadia";
        src: url("https://excalidraw.com/Cascadia.woff2");
      }
    </style>
    
  </defs>
  <rect x="0" y="0" width="1161.9999999999993" height="534.1666666666664" fill="#ffffff"></rect><g stroke-linecap="round" transform="translate(75.49999999999977 119.66666666666663) rotate(0 119.5 79.5)"><path d="M32 0 L207 0 L214.5 0.5 L221 2 L226.5 4.5 L231 8 L234.5 12.5 L237 18 L238.5 24.5 L239 32 L239 127 L238.5 134.5 L237 141 L234.5 146.5 L231 151 L226.5 154.5 L221 157 L214.5 158.5 L207 159 L32 159 L24.5 158.5 L18 157 L12.5 154.5 L8 151 L4.5 146.5 L2 141 L0.5 134.5 L0 127 L0.5 24.5 L2 18 L4.5 12.5 L8 8 L12.5 4.5 L18 2 L24.5 0.5 L32 0" stroke="none" stroke-width="0" fill="#b2f2bb"></path><path d="M32 0 M32 0 C101.99 0, 171.98 0, 207 0 M32 0 C93.14 0, 154.28 0, 207 0 M207 0 C228.33 0, 239 10.67, 239 32 M207 0 C228.33 0, 239 10.67, 239 32 M239 32 C239 52.31, 239 72.62, 239 127 M239 32 C239 55.17, 239 78.34, 239 127 M239 127 C239 148.33, 228.33 159, 207 159 M239 127 C239 148.33, 228.33 159, 207 159 M207 159 C162.63 159, 118.26 159, 32 159 M207 159 C164.75 159, 122.5 159, 32 159 M32 159 C10.67 159, 0 148.33, 0 127 M32 159 C10.67 159, 0 148.33, 0 127 M0 127 C0 89.42, 0 51.85, 0 32 M0 127 C0 102.97, 0 78.94, 0 32 M0 32 C0 10.67, 10.67 0, 32 0 M0 32 C0 10.67, 10.67 0, 32 0" stroke="#1e1e1e" stroke-width="1" fill="none"></path></g><g transform="translate(142.02636718749977 187.66666666666663) rotate(0 52.9736328125 11.5)"><text x="52.9736328125" y="0" font-family="Helvetica, Segoe UI Emoji" font-size="20px" fill="#1e1e1e" text-anchor="middle" style="white-space: pre;" direction="ltr" dominant-baseline="text-before-edge">Trino charm</text></g><g stroke-linecap="round" transform="translate(537.9999999999998 114.66666666666663) rotate(0 61 79.5)"><path d="M30.5 0 M30.5 0 C45.42 0, 60.33 0, 91.5 0 M30.5 0 C47.8 0, 65.11 0, 91.5 0 M91.5 0 C111.83 0, 122 10.17, 122 30.5 M91.5 0 C111.83 0, 122 10.17, 122 30.5 M122 30.5 C122 61.41, 122 92.32, 122 128.5 M122 30.5 C122 54.19, 122 77.87, 122 128.5 M122 128.5 C122 148.83, 111.83 159, 91.5 159 M122 128.5 C122 148.83, 111.83 159, 91.5 159 M91.5 159 C72.21 159, 52.93 159, 30.5 159 M91.5 159 C76.22 159, 60.94 159, 30.5 159 M30.5 159 C10.17 159, 0 148.83, 0 128.5 M30.5 159 C10.17 159, 0 148.83, 0 128.5 M0 128.5 C0 98.55, 0 68.6, 0 30.5 M0 128.5 C0 106.95, 0 85.39, 0 30.5 M0 30.5 C0 10.17, 10.17 0, 30.5 0 M0 30.5 C0 10.17, 10.17 0, 30.5 0" stroke="#1e1e1e" stroke-width="1" fill="none"></path></g><g transform="translate(566.2070312499998 182.66666666666663) rotate(0 32.79296875 11.5)"><text x="32.79296875" y="0" font-family="Helvetica, Segoe UI Emoji" font-size="20px" fill="#1e1e1e" text-anchor="middle" style="white-space: pre;" direction="ltr" dominant-baseline="text-before-edge">Ingress</text></g><g stroke-linecap="round" transform="translate(10 49.16666666666663) rotate(0 349.9999999999999 237.4999999999999)"><path d="M32 0 M32 0 C247.58 0, 463.16 0, 668 0 M668 0 C689.33 0, 700 10.67, 700 32 M700 32 C700 188.02, 700 344.04, 700 443 M700 443 C700 464.33, 689.33 475, 668 475 M668 475 C450.06 475, 232.12 475, 32 475 M32 475 C10.67 475, 0 464.33, 0 443 M0 443 C0 318.72, 0 194.43, 0 32 M0 32 C0 10.67, 10.67 0, 32 0" stroke="#1e1e1e" stroke-width="2.5" fill="none" stroke-dasharray="8 10"></path></g><g transform="translate(35.83333333333326 10) rotate(0 95.0146484375 11.5)"><text x="0" y="0" font-family="Helvetica, Segoe UI Emoji" font-size="20px" fill="#1e1e1e" text-anchor="start" style="white-space: pre;" direction="ltr" dominant-baseline="text-before-edge">Commsys k8s cluster</text></g><g stroke-linecap="round" transform="translate(912.9999999999993 117.16666666666663) rotate(0 119.5 79.5)"><path d="M32 0 L207 0 L214.5 0.5 L221 2 L226.5 4.5 L231 8 L234.5 12.5 L237 18 L238.5 24.5 L239 32 L239 127 L238.5 134.5 L237 141 L234.5 146.5 L231 151 L226.5 154.5 L221 157 L214.5 158.5 L207 159 L32 159 L24.5 158.5 L18 157 L12.5 154.5 L8 151 L4.5 146.5 L2 141 L0.5 134.5 L0 127 L0.5 24.5 L2 18 L4.5 12.5 L8 8 L12.5 4.5 L18 2 L24.5 0.5 L32 0" stroke="none" stroke-width="0" fill="#a5d8ff"></path><path d="M32 0 M32 0 C96.81 0, 161.62 0, 207 0 M32 0 C70.97 0, 109.94 0, 207 0 M207 0 C228.33 0, 239 10.67, 239 32 M207 0 C228.33 0, 239 10.67, 239 32 M239 32 C239 65.71, 239 99.42, 239 127 M239 32 C239 67.39, 239 102.77, 239 127 M239 127 C239 148.33, 228.33 159, 207 159 M239 127 C239 148.33, 228.33 159, 207 159 M207 159 C168.59 159, 130.19 159, 32 159 M207 159 C159.3 159, 111.6 159, 32 159 M32 159 C10.67 159, 0 148.33, 0 127 M32 159 C10.67 159, 0 148.33, 0 127 M0 127 C0 94.22, 0 61.45, 0 32 M0 127 C0 90.03, 0 53.07, 0 32 M0 32 C0 10.67, 10.67 0, 32 0 M0 32 C0 10.67, 10.67 0, 32 0" stroke="#1e1e1e" stroke-width="1" fill="none"></path></g><g transform="translate(1006.9335937499993 185.16666666666663) rotate(0 25.56640625 11.5)"><text x="25.56640625" y="0" font-family="Helvetica, Segoe UI Emoji" font-size="20px" fill="#1e1e1e" text-anchor="middle" style="white-space: pre;" direction="ltr" dominant-baseline="text-before-edge">Client</text></g><g mask="url(#mask-BK9Ig-CBWLxHIXRdKeuPg)" stroke-linecap="round"><g transform="translate(534.9999999999998 194.16666666666663) rotate(0 -107.5 0)"><path d="M0 0 C-35.83 0, -179.17 0, -215 0 M0 0 C-35.83 0, -179.17 0, -215 0" stroke="#1e1e1e" stroke-width="2" fill="none"></path></g><g transform="translate(534.9999999999998 194.16666666666663) rotate(0 -107.5 0)"><path d="M-186.81 -10.26 C-194.49 -7.47, -202.17 -4.67, -215 0 M-186.81 -10.26 C-196.76 -6.64, -206.71 -3.02, -215 0" stroke="#1e1e1e" stroke-width="2" fill="none"></path></g><g transform="translate(534.9999999999998 194.16666666666663) rotate(0 -107.5 0)"><path d="M-186.81 10.26 C-194.49 7.47, -202.17 4.67, -215 0 M-186.81 10.26 C-196.76 6.64, -206.71 3.02, -215 0" stroke="#1e1e1e" stroke-width="2" fill="none"></path></g></g><mask id="mask-BK9Ig-CBWLxHIXRdKeuPg"><rect x="0" y="0" fill="#fff" width="849.9999999999998" height="294.16666666666663"></rect><rect x="369.7070312499998" y="182.66666666666663" fill="#000" width="115.5859375" height="23" opacity="1"></rect></mask><g transform="translate(369.7070312499998 182.66666666666663) rotate(0 57.79296875 11.5)"><text x="57.79296875" y="0" font-family="Helvetica, Segoe UI Emoji" font-size="20px" fill="#1e1e1e" text-anchor="middle" style="white-space: pre;" direction="ltr" dominant-baseline="text-before-edge">HTTP (8080)</text></g><g mask="url(#mask-t8UHYTahnOR1irsJrkTT4)" stroke-linecap="round"><g transform="translate(909.9999999999998 193.66029436390306) rotate(0 -122.5 -0.2592418457292638)"><path d="M0 0 C-40.83 -0.09, -204.17 -0.43, -245 -0.52 M0 0 C-40.83 -0.09, -204.17 -0.43, -245 -0.52" stroke="#1e1e1e" stroke-width="2" fill="none"></path></g><g transform="translate(909.9999999999998 193.66029436390306) rotate(0 -122.5 -0.2592418457292638)"><path d="M-216.79 -10.72 C-227.8 -6.74, -238.81 -2.76, -245 -0.52 M-216.79 -10.72 C-222.61 -8.61, -228.43 -6.51, -245 -0.52" stroke="#1e1e1e" stroke-width="2" fill="none"></path></g><g transform="translate(909.9999999999998 193.66029436390306) rotate(0 -122.5 -0.2592418457292638)"><path d="M-216.83 9.8 C-227.83 5.77, -238.82 1.75, -245 -0.52 M-216.83 9.8 C-222.64 7.67, -228.45 5.54, -245 -0.52" stroke="#1e1e1e" stroke-width="2" fill="none"></path></g></g><mask id="mask-t8UHYTahnOR1irsJrkTT4"><rect x="0" y="0" fill="#fff" width="1254.9999999999998" height="294.1787780553616"></rect><rect x="723.0371093749998" y="181.90105251817386" fill="#000" width="128.92578125" height="23" opacity="1"></rect></mask><g transform="translate(723.0371093749998 181.90105251817386) rotate(0 64.462890625 11.499999999999943)"><text x="64.462890625" y="0" font-family="Helvetica, Segoe UI Emoji" font-size="20px" fill="#1e1e1e" text-anchor="middle" style="white-space: pre;" direction="ltr" dominant-baseline="text-before-edge">HTTPS (8443)</text></g><g stroke-linecap="round" transform="translate(75.5 382.1666666666664) rotate(0 119.5 52)"><path d="M26 0 L213 0 L224.38 1.63 L228.84 3.66 L232.5 6.5 L235.34 10.16 L237.38 14.63 L238.59 19.91 L239 78 L237.38 89.38 L235.34 93.84 L232.5 97.5 L228.84 100.34 L224.38 102.38 L213 104 L26 104 L14.63 102.38 L10.16 100.34 L6.5 97.5 L3.66 93.84 L1.63 89.38 L0.41 84.09 L0.41 19.91 L1.63 14.63 L3.66 10.16 L6.5 6.5 L10.16 3.66 L14.63 1.63 L26 0" stroke="none" stroke-width="0" fill="#ffc9c9"></path><path d="M26 0 M26 0 C84.92 0, 143.84 0, 213 0 M26 0 C96.63 0, 167.25 0, 213 0 M213 0 C230.33 0, 239 8.67, 239 26 M213 0 C230.33 0, 239 8.67, 239 26 M239 26 C239 39.52, 239 53.04, 239 78 M239 26 C239 36.6, 239 47.21, 239 78 M239 78 C239 95.33, 230.33 104, 213 104 M239 78 C239 95.33, 230.33 104, 213 104 M213 104 C156.66 104, 100.31 104, 26 104 M213 104 C148.98 104, 84.95 104, 26 104 M26 104 C8.67 104, 0 95.33, 0 78 M26 104 C8.67 104, 0 95.33, 0 78 M0 78 C0 60.49, 0 42.97, 0 26 M0 78 C0 58.57, 0 39.14, 0 26 M0 26 C0 8.67, 8.67 0, 26 0 M0 26 C0 8.67, 8.67 0, 26 0" stroke="#1e1e1e" stroke-width="1" fill="none"></path></g><g transform="translate(131.640625 422.6666666666664) rotate(0 63.359375 11.5)"><text x="63.359375" y="0" font-family="Helvetica, Segoe UI Emoji" font-size="20px" fill="#1e1e1e" text-anchor="middle" style="white-space: pre;" direction="ltr" dominant-baseline="text-before-edge">Ranger charm</text></g><g mask="url(#mask-h-WavomXBIU6nkGXvZ5-5)" stroke-linecap="round"><g transform="translate(191.54787196483994 381.1666666666664) rotate(0 -0.4201615315187155 -48.49999999999994)"><path d="M0 0 C-0.14 -16.17, -0.7 -80.83, -0.84 -97 M0 0 C-0.14 -16.17, -0.7 -80.83, -0.84 -97" stroke="#1e1e1e" stroke-width="2" fill="none"></path></g><g transform="translate(191.54787196483994 381.1666666666664) rotate(0 -0.4201615315187155 -48.49999999999994)"><path d="M9.66 -68.9 C6.07 -78.52, 2.47 -88.14, -0.84 -97 M9.66 -68.9 C6.53 -77.28, 3.4 -85.65, -0.84 -97" stroke="#1e1e1e" stroke-width="2" fill="none"></path></g><g transform="translate(191.54787196483994 381.1666666666664) rotate(0 -0.4201615315187155 -48.49999999999994)"><path d="M-10.86 -68.72 C-7.43 -78.4, -4 -88.09, -0.84 -97 M-10.86 -68.72 C-7.87 -77.15, -4.88 -85.58, -0.84 -97" stroke="#1e1e1e" stroke-width="2" fill="none"></path></g></g><mask id="mask-h-WavomXBIU6nkGXvZ5-5"><rect x="0" y="0" fill="#fff" width="292.3881950278774" height="578.1666666666663"></rect><rect x="133.33474168332123" y="321.1666666666664" fill="#000" width="115.5859375" height="23" opacity="1"></rect></mask><g transform="translate(133.33474168332123 321.1666666666665) rotate(0 57.79296875 11.499999999999943)"><text x="57.79296875" y="0" font-family="Helvetica, Segoe UI Emoji" font-size="20px" fill="#1e1e1e" text-anchor="middle" style="white-space: pre;" direction="ltr" dominant-baseline="text-before-edge">HTTP (8080)</text></g></svg>